HIERARCHY
ROOT Hips
{
	OFFSET 0.000000 71.427986 0.000000
	CHANNELS 6 Xposition Yposition Zposition Xrotation Yrotation Zrotation
	JOINT Pelvis
	{
		OFFSET 0.000000 0.000000 0.000000
		CHANNELS 3 Xrotation Yrotation Zrotation
		JOINT LeftUpLeg
		{
			OFFSET 6.797100 -2.508499 -1.318700
			CHANNELS 3 Xrotation Yrotation Zrotation
			JOINT LeftLeg
			{
				OFFSET 0.069008 -29.241863 0.690200
				CHANNELS 3 Xrotation Yrotation Zrotation
				JOINT LeftFoot
				{
					OFFSET -0.069008 -29.568123 -0.266800
					CHANNELS 3 Xrotation Yrotation Zrotation
					JOINT LeftToeBase
					{
						OFFSET 3.145500 -8.631000 16.059900
						CHANNELS 3 Xrotation Yrotation Zrotation
						End Site
						{
							OFFSET 0.000000 18.501587 0.000000
						}
					}
				}
			}
			JOINT Left_ShortSleeve
			{
				OFFSET 0.265923 -10.480953 1.153800
				CHANNELS 3 Xrotation Yrotation Zrotation
				End Site
				{
					OFFSET 1.725763 19.823879 0.000000
				}
			}
		}
		JOINT RightUpLeg
		{
			OFFSET -6.797100 -2.508499 -1.318700
			CHANNELS 3 Xrotation Yrotation Zrotation
			JOINT RightLeg
			{
				OFFSET -0.082453 -29.241932 0.688000
				CHANNELS 3 Xrotation Yrotation Zrotation
				JOINT RightFoot
				{
					OFFSET 0.082453 -29.568058 -0.264600
					CHANNELS 3 Xrotation Yrotation Zrotation
					JOINT RightToeBase
					{
						OFFSET -3.115300 -8.682800 16.113400
						CHANNELS 3 Xrotation Yrotation Zrotation
						End Site
						{
							OFFSET 0.000000 18.567114 0.000000
						}
					}
				}
			}
			JOINT Right_ShortSleeve
			{
				OFFSET -0.265923 -10.480953 1.153800
				CHANNELS 3 Xrotation Yrotation Zrotation
				End Site
				{
					OFFSET -1.725766 19.823910 0.000000
				}
			}
		}
	}
	JOINT Spine
	{
		OFFSET 0.000000 13.368103 0.470500
		CHANNELS 3 Xrotation Yrotation Zrotation
		JOINT Spine1
		{
			OFFSET 0.147000 13.837402 0.538800
			CHANNELS 3 Xrotation Yrotation Zrotation
			JOINT Spine2
			{
				OFFSET 0.168000 16.242897 -1.435500
				CHANNELS 3 Xrotation Yrotation Zrotation
				JOINT Neck
				{
					OFFSET 0.217200 18.631500 -1.679100
					CHANNELS 3 Xrotation Yrotation Zrotation
					JOINT Head
					{
						OFFSET 0.000000 6.599396 1.385900
						CHANNELS 3 Xrotation Yrotation Zrotation
						JOINT Hat
						{
							OFFSET -0.532200 27.220596 -10.096100
							CHANNELS 3 Xrotation Yrotation Zrotation
							End Site
							{
								OFFSET 0.000000 22.029861 0.000000
							}
						}
						JOINT HairD
						{
							OFFSET -10.777400 17.437393 -1.325900
							CHANNELS 3 Xrotation Yrotation Zrotation
							JOINT HairD1
							{
								OFFSET -3.290299 -11.051193 1.062200
								CHANNELS 3 Xrotation Yrotation Zrotation
								End Site
								{
									OFFSET 0.000000 11.579437 0.000000
								}
							}
						}
						JOINT HairB
						{
							OFFSET -10.777400 17.437393 1.467900
							CHANNELS 3 Xrotation Yrotation Zrotation
							JOINT HairB1
							{
								OFFSET -1.561200 -12.956299 3.590200
								CHANNELS 3 Xrotation Yrotation Zrotation
								End Site
								{
									OFFSET 0.000000 13.534866 0.000000
								}
							}
						}
						JOINT HairA
						{
							OFFSET 9.713100 17.437393 1.467900
							CHANNELS 3 Xrotation Yrotation Zrotation
							JOINT HairA1
							{
								OFFSET 1.561200 -12.956299 3.590200
								CHANNELS 3 Xrotation Yrotation Zrotation
								End Site
								{
									OFFSET 0.000000 13.534866 0.000000
								}
							}
						}
						JOINT HairC
						{
							OFFSET 9.713100 17.437393 -1.325900
							CHANNELS 3 Xrotation Yrotation Zrotation
							JOINT HairC1
							{
								OFFSET 3.290300 -11.051193 1.062200
								CHANNELS 3 Xrotation Yrotation Zrotation
								End Site
								{
									OFFSET 0.000000 11.579437 0.000000
								}
							}
						}
					}
				}
				JOINT LeftShoulder
				{
					OFFSET 5.101800 15.108002 -2.763700
					CHANNELS 3 Xrotation Yrotation Zrotation
					JOINT LeftArm
					{
						OFFSET 9.825497 2.506317 -1.597400
						CHANNELS 3 Xrotation Yrotation Zrotation
						JOINT LeftForeArm
						{
							OFFSET 21.966244 0.000000 0.000000
							CHANNELS 3 Xrotation Yrotation Zrotation
							JOINT LeftHand
							{
								OFFSET 33.879036 0.000000 0.000000
								CHANNELS 3 Xrotation Yrotation Zrotation
								JOINT LeftHandThumb1
								{
									OFFSET 6.715286 -2.359680 3.363841
									CHANNELS 3 Xrotation Yrotation Zrotation
									JOINT LeftHandThumb2
									{
										OFFSET 2.507072 -1.447464 1.447461
										CHANNELS 3 Xrotation Yrotation Zrotation
										JOINT LeftHandThumb3
										{
											OFFSET 2.898338 -1.673355 1.673357
											CHANNELS 3 Xrotation Yrotation Zrotation
											End Site
											{
												OFFSET -0.295959 3.727692 -0.131651
											}
										}
									}
								}
								JOINT LeftHandIndex1
								{
									OFFSET 14.190811 -0.254547 3.840278
									CHANNELS 3 Xrotation Yrotation Zrotation
									JOINT LeftHandIndex2
									{
										OFFSET 3.551727 0.000000 -0.000000
										CHANNELS 3 Xrotation Yrotation Zrotation
										JOINT LeftHandIndex3
										{
											OFFSET 2.894196 0.000000 0.000000
											CHANNELS 3 Xrotation Yrotation Zrotation
											End Site
											{
												OFFSET -1.000603 2.690872 0.366626
											}
										}
									}
								}
								JOINT LeftHandMiddle1
								{
									OFFSET 13.776489 0.000000 0.000000
									CHANNELS 3 Xrotation Yrotation Zrotation
									JOINT LeftHandMiddle2
									{
										OFFSET 3.438232 0.000000 0.000000
										CHANNELS 3 Xrotation Yrotation Zrotation
										JOINT LeftHandMiddle3
										{
											OFFSET 3.691551 0.000000 0.000000
											CHANNELS 3 Xrotation Yrotation Zrotation
											End Site
											{
												OFFSET -1.082298 3.499527 0.457670
											}
										}
									}
								}
								JOINT LeftHandRing1
								{
									OFFSET 13.966164 -0.268127 -3.067488
									CHANNELS 3 Xrotation Yrotation Zrotation
									JOINT LeftHandRing2
									{
										OFFSET 3.162567 0.000000 0.000000
										CHANNELS 3 Xrotation Yrotation Zrotation
										JOINT LeftHandRing3
										{
											OFFSET 3.324348 0.000000 0.000000
											CHANNELS 3 Xrotation Yrotation Zrotation
											End Site
											{
												OFFSET -0.861900 3.184998 0.405154
											}
										}
									}
								}
								JOINT LeftHandPinky1
								{
									OFFSET 13.131393 -0.168503 -5.746925
									CHANNELS 3 Xrotation Yrotation Zrotation
									JOINT LeftHandPinky2
									{
										OFFSET 2.849182 0.000000 0.000000
										CHANNELS 3 Xrotation Yrotation Zrotation
										JOINT LeftHandPinky3
										{
											OFFSET 2.805038 0.000000 0.000000
											CHANNELS 3 Xrotation Yrotation Zrotation
											End Site
											{
												OFFSET -0.882500 2.642609 0.325652
											}
										}
									}
								}
							}
							JOINT Left_Sleeve
							{
								OFFSET 6.592125 -0.646545 0.805568
								CHANNELS 3 Xrotation Yrotation Zrotation
								End Site
								{
									OFFSET -0.000179 20.275787 -0.000000
								}
							}
						}
					}
				}
				JOINT RightShoulder
				{
					OFFSET -5.731700 15.108002 -2.763700
					CHANNELS 3 Xrotation Yrotation Zrotation
					JOINT RightArm
					{
						OFFSET -9.825497 2.506317 -1.597400
						CHANNELS 3 Xrotation Yrotation Zrotation
						JOINT RightForeArm
						{
							OFFSET -21.966242 0.000000 0.000000
							CHANNELS 3 Xrotation Yrotation Zrotation
							JOINT RightHand
							{
								OFFSET -33.879032 0.000000 0.000000
								CHANNELS 3 Xrotation Yrotation Zrotation
								JOINT RightHandThumb1
								{
									OFFSET -6.715286 -2.359680 3.363841
									CHANNELS 3 Xrotation Yrotation Zrotation
									JOINT RightHandThumb2
									{
										OFFSET -2.507072 -1.447464 1.447461
										CHANNELS 3 Xrotation Yrotation Zrotation
										JOINT RightHandThumb3
										{
											OFFSET -2.898338 -1.673355 1.673357
											CHANNELS 3 Xrotation Yrotation Zrotation
											End Site
											{
												OFFSET 0.295959 3.727692 -0.131651
											}
										}
									}
								}
								JOINT RightHandIndex1
								{
									OFFSET -14.190811 -0.254547 3.840278
									CHANNELS 3 Xrotation Yrotation Zrotation
									JOINT RightHandIndex2
									{
										OFFSET -3.551727 0.000000 -0.000000
										CHANNELS 3 Xrotation Yrotation Zrotation
										JOINT RightHandIndex3
										{
											OFFSET -2.894196 0.000000 0.000000
											CHANNELS 3 Xrotation Yrotation Zrotation
											End Site
											{
												OFFSET 1.000603 2.690872 0.366626
											}
										}
									}
								}
								JOINT RightHandMiddle1
								{
									OFFSET -13.776489 0.000000 0.000000
									CHANNELS 3 Xrotation Yrotation Zrotation
									JOINT RightHandMiddle2
									{
										OFFSET -3.438232 0.000000 0.000000
										CHANNELS 3 Xrotation Yrotation Zrotation
										JOINT RightHandMiddle3
										{
											OFFSET -3.691551 0.000000 0.000000
											CHANNELS 3 Xrotation Yrotation Zrotation
											End Site
											{
												OFFSET 1.082298 3.499527 0.457670
											}
										}
									}
								}
								JOINT RightHandRing1
								{
									OFFSET -13.966164 -0.268127 -3.067488
									CHANNELS 3 Xrotation Yrotation Zrotation
									JOINT RightHandRing2
									{
										OFFSET -3.162567 0.000000 0.000000
										CHANNELS 3 Xrotation Yrotation Zrotation
										JOINT RightHandRing3
										{
											OFFSET -3.324348 0.000000 0.000000
											CHANNELS 3 Xrotation Yrotation Zrotation
											End Site
											{
												OFFSET 0.861900 3.184998 0.405154
											}
										}
									}
								}
								JOINT RightHandPinky1
								{
									OFFSET -13.131393 -0.168503 -5.746925
									CHANNELS 3 Xrotation Yrotation Zrotation
									JOINT RightHandPinky2
									{
										OFFSET -2.849182 0.000000 0.000000
										CHANNELS 3 Xrotation Yrotation Zrotation
										JOINT RightHandPinky3
										{
											OFFSET -2.805038 0.000000 0.000000
											CHANNELS 3 Xrotation Yrotation Zrotation
											End Site
											{
												OFFSET 0.882500 2.642609 0.325652
											}
										}
									}
								}
							}
							JOINT Right_Sleeve
							{
								OFFSET -6.592125 -0.646545 0.805568
								CHANNELS 3 Xrotation Yrotation Zrotation
								End Site
								{
									OFFSET 0.000179 20.275787 -0.000000
								}
							}
						}
					}
				}
				JOINT Bind_Right_JacketString
				{
					OFFSET -3.534800 11.969597 7.200700
					CHANNELS 3 Xrotation Yrotation Zrotation
					JOINT Bind_Right_JacketString1
					{
						OFFSET -0.319900 -6.102600 2.794100
						CHANNELS 3 Xrotation Yrotation Zrotation
						End Site
						{
							OFFSET 0.000000 6.719452 0.000000
						}
					}
				}
				JOINT Bind_Left_JacketString
				{
					OFFSET 2.904800 11.969597 7.200700
					CHANNELS 3 Xrotation Yrotation Zrotation
					JOINT Bind_Left_JacketString1
					{
						OFFSET 0.364800 -5.904503 3.186800
						CHANNELS 3 Xrotation Yrotation Zrotation
						End Site
						{
							OFFSET 0.000000 6.719513 0.000000
						}
					}
				}
				JOINT HairE
				{
					OFFSET 5.915200 17.612701 -11.592200
					CHANNELS 3 Xrotation Yrotation Zrotation
					JOINT HairE1
					{
						OFFSET 0.289200 -7.171898 -1.284500
						CHANNELS 3 Xrotation Yrotation Zrotation
						End Site
						{
							OFFSET 0.000000 7.291756 0.000000
						}
					}
				}
				JOINT HairF
				{
					OFFSET -0.864800 17.612701 -11.592200
					CHANNELS 3 Xrotation Yrotation Zrotation
					JOINT HairF1
					{
						OFFSET 0.000000 -14.087097 -2.127501
						CHANNELS 3 Xrotation Yrotation Zrotation
						End Site
						{
							OFFSET 0.000000 14.246841 0.000000
						}
					}
				}
				JOINT HairG
				{
					OFFSET -8.087700 17.612701 -11.592200
					CHANNELS 3 Xrotation Yrotation Zrotation
					JOINT HairG1
					{
						OFFSET -0.293600 -6.081398 -0.910100
						CHANNELS 3 Xrotation Yrotation Zrotation
						End Site
						{
							OFFSET 0.000000 6.156120 0.000000
						}
					}
				}
			}
		}
	}
	JOINT Pouch
	{
		OFFSET 0.000000 4.394501 10.847300
		CHANNELS 3 Xrotation Yrotation Zrotation
		End Site
		{
			OFFSET 0.000000 21.880577 0.000000
		}
	}
	JOINT Bag
	{
		OFFSET -13.229000 4.813004 -0.593300
		CHANNELS 3 Xrotation Yrotation Zrotation
		End Site
		{
			OFFSET 0.000000 21.880577 0.000000
		}
	}
	JOINT OccupyGuyFacialAnim_Joint
	{
		OFFSET 1.000000 -70.206398 -1.655000
		CHANNELS 3 Xrotation Yrotation Zrotation
		End Site
		{
			OFFSET 0.000000 21.880577 0.000000
		}
	}
}
MOTION
Frames: 4
Frame Time: 0.016667
3.837923 60.743607 2.567642 -3.064062 -43.001659 17.865750 -0.000001 -0.000001 0.000002 -23.400160 31.989918 -4.786787 59.114905 3.494532 3.376433 -25.617150 19.837050 -4.999465 -0.000000 -0.000000 -0.000000 -0.000000 0.000002 0.000001 -33.402757 7.517819 -36.862408 65.944247 4.764002 -9.086050 -28.114763 -7.309485 19.875844 -0.000000 0.000002 0.000000 0.000002 0.000000 0.000000 0.342107 -1.843073 6.987537 0.027300 -1.386087 5.062932 -0.080028 -1.272386 5.054160 -11.424511 3.372344 7.860919 -19.486308 29.446264 -6.823218 -0.000002 -0.000001 0.000000 -0.000002 -0.000001 0.000000 -0.000002 -0.000001 0.000001 -0.000002 -0.000001 0.000000 -0.000004 -0.000001 0.000000 -0.000002 -0.000001 0.000000 -0.000004 -0.000001 0.000000 -0.000002 -0.000001 0.000000 -0.000002 -0.000001 0.000000 -0.548177 2.093927 14.135927 -33.452050 -33.142004 -47.500745 0.000128 -87.864428 0.000076 -23.599357 -10.877276 -3.087993 14.035379 -26.979124 7.263441 13.226147 36.584877 -28.243003 -0.000000 -0.000001 0.000001 0.201890 1.658371 -13.881107 0.378663 2.256067 -19.053506 0.000002 -0.000000 -0.000002 0.201427 1.656501 -13.865110 0.379298 2.257884 -19.069519 0.000000 0.000001 0.000003 0.201892 1.658363 -13.881101 0.378666 2.256066 -19.053514 0.000000 -0.000002 0.000002 1.160827 5.598142 -13.431391 0.380582 -1.801556 -19.536752 -0.000000 0.000001 0.000003 0.000000 0.000000 0.000000 -0.011249 -5.892466 7.391192 118.821222 72.028074 -83.805998 -0.000012 25.801466 0.000017 -19.295716 3.278941 -3.516588 40.606598 -3.110613 26.124234 -37.849493 -44.265032 -46.874980 -0.000000 0.000002 0.000003 3.635336 -6.111005 61.464456 7.728604 -6.904450 96.464462 0.000001 -0.000003 0.000002 3.635330 -6.111004 61.464456 7.728622 -6.904466 96.464428 0.000006 0.000000 0.000003 3.635319 -6.110962 61.464442 7.728627 -6.904484 96.464449 0.000001 0.000001 0.000003 3.635339 -6.110997 61.464456 7.728620 -6.904472 96.464435 0.000003 0.000004 -0.000001 -0.000002 -0.000000 -0.000000 0.000000 0.000000 -0.000000 0.000000 -0.000002 0.000001 0.000000 0.000000 -0.000001 0.000000 0.000000 -0.000001 0.000000 0.000000 -0.000000 0.000000 -0.000002 0.000002 0.000000 0.000000 -0.000001 0.000000 0.000000 -0.000001 0.000000 0.000000 -0.000000 0.000000 -0.000002 0.000002 -0.000001 -0.000001 0.000002 -0.000001 -0.000001 0.000002 -0.000001 -0.000001 0.000002 
4.184933 60.920944 2.583931 -2.234216 -42.518570 18.450417 -0.000000 -0.000001 0.000001 -23.850158 31.367104 -5.329859 58.439932 3.664741 2.807522 -25.301182 19.875567 -4.474033 0.000000 0.000000 -0.000000 0.000000 0.000001 0.000000 -34.174896 7.525992 -36.656836 65.315159 4.570115 -9.088842 -27.449357 -6.926634 19.863010 -0.000000 -0.000000 -0.000000 0.000000 -0.000007 -0.000003 0.388014 -1.582739 6.970579 0.080688 -1.191923 5.048746 -0.026330 -1.085812 5.036028 -11.396555 3.371381 7.365463 -19.078933 28.735576 -7.123463 0.000001 0.000002 0.000000 0.000001 0.000002 0.000000 0.000001 0.000002 0.000000 0.000001 0.000002 -0.000001 -0.000001 0.000002 -0.000001 0.000001 0.000002 -0.000001 -0.000001 0.000002 -0.000001 0.000001 0.000002 0.000000 0.000001 0.000002 0.000000 -0.621175 2.423857 13.794272 -32.468353 -33.363739 -47.016639 -0.000546 -89.505271 -0.000548 -24.397897 -11.122541 -2.975579 14.573667 -27.004410 6.829639 13.798564 36.351291 -28.336086 0.000000 0.000001 0.000003 0.215243 1.711486 -14.335249 0.390034 2.288683 -19.340147 0.000002 0.000000 -0.000004 0.214766 1.709612 -14.319258 0.390668 2.290508 -19.356158 -0.000000 0.000002 -0.000003 0.215242 1.711477 -14.335245 0.390037 2.288687 -19.340152 0.000001 0.000001 0.000000 1.205585 5.643527 -13.888386 0.392221 -1.769031 -19.822566 -0.000000 -0.000001 0.000003 0.000000 -0.000000 -0.000000 -0.002586 -5.888117 7.492381 118.408569 71.656000 -83.809242 0.000008 25.428890 -0.000006 -19.616664 4.100349 -3.061027 40.606588 -3.110608 26.124230 -37.849493 -44.265029 -46.874970 -0.000000 -0.000001 0.000001 3.635329 -6.111000 61.464449 7.728601 -6.904453 96.464456 -0.000004 0.000000 0.000002 3.635323 -6.111001 61.464456 7.728621 -6.904469 96.464428 0.000001 0.000001 -0.000001 3.635315 -6.110959 61.464449 7.728625 -6.904480 96.464456 0.000002 0.000001 -0.000000 3.635334 -6.110996 61.464456 7.728617 -6.904474 96.464435 0.000003 -0.000000 0.000002 0.000002 -0.000002 0.000000 -0.000001 0.000001 0.000001 -0.000001 0.000001 0.000001 -0.000001 0.000001 -0.000001 -0.000001 0.000001 -0.000001 -0.000001 0.000001 0.000001 -0.000001 0.000001 0.000001 -0.000001 0.000001 -0.000001 -0.000001 0.000001 -0.000001 -0.000001 0.000001 0.000001 -0.000001 0.000001 0.000001 -0.000000 -0.000001 0.000001 -0.000000 -0.000001 0.000001 -0.000000 -0.000001 0.000001 
4.523626 61.159241 2.569712 -1.350840 -42.073040 19.050036 -0.000000 -0.000001 -0.000001 -24.217821 30.931140 -5.853739 57.492387 3.868951 2.341856 -24.820294 19.771369 -3.998705 0.000000 -0.000000 -0.000000 -0.000001 -0.000000 -0.000001 -35.123445 7.325902 -36.371468 64.580996 4.325509 -9.118884 -26.770826 -6.194714 19.712355 -0.000000 -0.000000 -0.000000 -0.000002 0.000000 -0.000003 0.445102 -1.312092 6.933098 0.140025 -0.990050 5.027508 0.034598 -0.892063 5.011689 -11.378205 3.392054 6.943743 -18.730001 28.242390 -7.478152 0.000002 -0.000003 0.000000 0.000002 -0.000003 0.000000 0.000002 -0.000003 0.000000 0.000002 -0.000003 0.000000 0.000002 0.000000 -0.000001 0.000002 -0.000003 0.000000 0.000002 0.000000 -0.000001 0.000002 -0.000003 0.000000 0.000002 -0.000003 0.000000 -0.713344 2.845089 13.378910 -31.471729 -33.569451 -46.626221 0.004415 -90.797004 0.004522 -24.660330 -11.610469 -3.034257 15.085028 -27.036498 6.348054 14.365802 36.116807 -28.424985 0.000001 0.000001 -0.000001 0.228966 1.764288 -14.787768 0.401519 2.321121 -19.625741 -0.000001 0.000002 0.000002 0.228475 1.762418 -14.771761 0.402169 2.322941 -19.641747 -0.000000 0.000000 0.000001 0.228966 1.764276 -14.787764 0.401519 2.321129 -19.625739 0.000000 0.000001 0.000000 1.250547 5.688376 -14.343766 0.403974 -1.736689 -20.107344 -0.000000 -0.000001 -0.000002 -0.000000 0.000000 0.000001 0.007041 -5.858255 7.548146 118.019604 71.112528 -83.953475 -0.000021 25.056465 0.000015 -20.278263 5.167649 -2.331178 40.606598 -3.110607 26.124234 -37.849497 -44.265032 -46.874970 0.000000 -0.000001 -0.000003 3.635330 -6.111002 61.464456 7.728607 -6.904451 96.464456 -0.000000 -0.000003 0.000003 3.635329 -6.111000 61.464449 7.728625 -6.904470 96.464421 0.000004 -0.000001 0.000001 3.635317 -6.110957 61.464449 7.728631 -6.904482 96.464435 -0.000000 0.000000 -0.000001 3.635337 -6.110995 61.464463 7.728619 -6.904473 96.464421 0.000003 -0.000000 -0.000001 -0.000001 -0.000001 0.000001 0.000001 0.000004 -0.000001 0.000001 0.000002 -0.000000 0.000001 0.000004 -0.000000 0.000001 0.000004 -0.000000 0.000001 0.000004 -0.000001 0.000001 0.000002 -0.000000 0.000001 0.000004 -0.000000 0.000001 0.000004 -0.000000 0.000001 0.000004 -0.000001 0.000001 0.000002 -0.000000 -0.000000 -0.000001 -0.000001 -0.000000 -0.000001 -0.000001 -0.000000 -0.000001 -0.000001 
4.847122 61.450684 2.529594 -0.442933 -41.637393 19.641514 -0.000001 0.000001 -0.000001 -24.481198 30.716102 -6.366534 56.293801 4.082902 2.033982 -24.188077 19.509257 -3.581375 0.000000 -0.000000 0.000000 0.000002 0.000000 0.000001 -36.171323 6.921803 -36.102679 63.665375 4.057774 -9.164782 -25.989659 -5.244460 19.507217 0.000000 0.000000 0.000000 0.000002 -0.000002 -0.000001 0.504207 -1.048470 6.874668 0.196465 -0.793567 5.000027 0.093394 -0.702938 4.982093 -11.340866 3.432829 6.607828 -18.475201 27.971494 -7.838867 0.000001 -0.000002 -0.000003 0.000001 -0.000002 -0.000003 0.000001 -0.000002 -0.000003 0.000001 -0.000002 -0.000002 0.000001 0.000001 -0.000000 0.000001 -0.000002 -0.000002 0.000001 0.000001 -0.000000 0.000001 -0.000002 -0.000003 0.000001 -0.000002 -0.000003 -0.812581 3.306772 12.932774 -30.510537 -33.820631 -46.309342 0.013493 -91.652806 0.013479 -24.475990 -12.258159 -3.030211 15.587024 -27.071550 5.859860 14.927353 35.881692 -28.509742 0.000000 0.000002 0.000002 0.243038 1.816746 -15.238227 0.413113 2.353353 -19.910024 0.000003 -0.000000 -0.000000 0.242533 1.814884 -15.222222 0.413768 2.355173 -19.926044 0.000001 0.000000 0.000001 0.243041 1.816730 -15.238224 0.413108 2.353365 -19.910022 -0.000001 -0.000000 -0.000001 1.295653 5.732676 -14.797134 0.415833 -1.704554 -20.390794 0.000000 0.000000 -0.000001 -0.000000 -0.000000 0.000000 0.016835 -5.810537 7.566560 117.834314 70.381397 -84.393735 -0.000000 24.613654 0.000025 -21.332885 6.419928 -1.469759 40.606591 -3.110609 26.124230 -37.849493 -44.265025 -46.874963 -0.000001 0.000002 0.000002 3.635331 -6.111001 61.464449 7.728601 -6.904453 96.464449 -0.000002 0.000002 -0.000003 3.635327 -6.111001 61.464456 7.728625 -6.904467 96.464428 0.000002 -0.000001 0.000003 3.635319 -6.110958 61.464449 7.728630 -6.904483 96.464449 0.000002 0.000000 -0.000001 3.635341 -6.110996 61.464456 7.728616 -6.904473 96.464435 0.000004 0.000000 0.000000 0.000002 0.000000 -0.000001 -0.000001 0.000001 0.000003 -0.000002 0.000001 -0.000001 -0.000001 0.000001 0.000002 -0.000001 0.000001 0.000002 -0.000001 0.000001 0.000003 -0.000002 0.000001 -0.000001 -0.000001 0.000001 0.000002 -0.000001 0.000001 0.000002 -0.000001 0.000001 0.000003 -0.000002 0.000001 -0.000001 -0.000001 0.000001 -0.000001 -0.000001 0.000001 -0.000001 -0.000001 0.000001 -0.000001 
